<svg width="150" height="150" viewBox="0 0 150 150" fill="none" xmlns="http://www.w3.org/2000/svg">
<rect width="150" height="150" rx="16" fill="black"/>
<path d="M27.7416 46.84V103H14.0616V46.84H27.7416ZM34.9353 80.6C34.9353 76.0133 35.7886 71.9867 37.4953 68.52C39.2553 65.0533 41.6286 62.3867 44.6153 60.52C47.602 58.6533 50.9353 57.72 54.6153 57.72C57.762 57.72 60.5086 58.36 62.8553 59.64C65.2553 60.92 67.0953 62.6 68.3753 64.68V58.36H82.0553V103H68.3753V96.68C67.042 98.76 65.1753 100.44 62.7753 101.72C60.4286 103 57.682 103.64 54.5353 103.64C50.9086 103.64 47.602 102.707 44.6153 100.84C41.6286 98.92 39.2553 96.2267 37.4953 92.76C35.7886 89.24 34.9353 85.1867 34.9353 80.6ZM68.3753 80.68C68.3753 77.2667 67.4153 74.5733 65.4953 72.6C63.6286 70.6267 61.3353 69.64 58.6153 69.64C55.8953 69.64 53.5753 70.6267 51.6553 72.6C49.7886 74.52 48.8553 77.1867 48.8553 80.6C48.8553 84.0133 49.7886 86.7333 51.6553 88.76C53.5753 90.7333 55.8953 91.72 58.6153 91.72C61.3353 91.72 63.6286 90.7333 65.4953 88.76C67.4153 86.7867 68.3753 84.0933 68.3753 80.68ZM119.152 57.88C124.379 57.88 128.539 59.5867 131.632 63C134.779 66.36 136.352 71 136.352 76.92V103H122.752V78.76C122.752 75.7733 121.979 73.4533 120.432 71.8C118.886 70.1467 116.806 69.32 114.192 69.32C111.579 69.32 109.499 70.1467 107.952 71.8C106.406 73.4533 105.632 75.7733 105.632 78.76V103H91.9522V58.36H105.632V64.28C107.019 62.3067 108.886 60.76 111.232 59.64C113.579 58.4667 116.219 57.88 119.152 57.88Z" fill="white"/>
</svg>
