<svg width="66" height="28" viewBox="0 0 66 28" fill="none" xmlns="http://www.w3.org/2000/svg">
<path d="M49.9918 6.7971C50.0596 7.47343 50.6701 7.98068 51.3823 7.98068H59.3186C59.7595 7.98068 60.2343 8.01449 60.6413 8.11594C62.2693 8.45411 63.6598 9.36715 64.6434 10.6522C65.2199 11.43 65.6608 12.343 65.8304 13.3237C65.9322 13.7633 65.9661 14.2029 65.9661 14.6425C65.9661 15.0821 65.9322 15.5556 65.8304 15.9614C65.2878 18.5652 63.2528 20.628 60.6413 21.1353C60.2004 21.2367 59.7595 21.2705 59.3186 21.2705H44.667V15.9614H59.2847C59.9969 15.9614 60.6074 15.4541 60.6752 14.7778C60.7431 14 60.1326 13.3237 59.3525 13.3237H51.3484C50.9075 13.3237 50.4327 13.2899 50.0257 13.1884C48.3977 12.8502 46.9733 11.9372 46.0236 10.6522C45.4471 9.8744 45.0401 8.96135 44.8366 7.98068C44.7348 7.54106 44.7009 7.10145 44.7009 6.66184C44.7009 6.22222 44.7348 5.74879 44.8366 5.343C45.3114 2.70531 47.3803 0.676328 49.9918 0.135266C50.4327 0.0338164 50.8736 0 51.3145 0H65.9661C65.9661 2.94203 63.592 5.30918 60.6413 5.30918H51.3145C50.5344 5.30918 49.9239 5.98551 49.9918 6.7971ZM43.9887 10.6184C43.9887 12.5459 43.48 14.372 42.5642 15.9275C41.6146 17.5507 40.2919 18.9034 38.6639 19.8164C37.1038 20.7295 35.2724 21.2367 33.3392 21.2367H22.6557V0H33.3052C35.2384 0 37.0699 0.507246 38.63 1.42029C40.258 2.36715 41.6146 3.68599 42.5303 5.30918C43.48 6.86473 43.9887 8.69082 43.9887 10.6184ZM38.6639 10.6184C38.6639 7.67633 36.2898 5.30918 33.3392 5.30918H27.9805V15.9275H33.3052C36.2559 15.9614 38.6639 13.5604 38.6639 10.6184ZM16.0082 0V10.6184C16.0082 13.5266 13.668 15.8937 10.7852 15.9275C7.80062 15.9952 5.35868 13.4589 5.35868 10.4831V0H0V10.6184C0 14.5411 2.13669 17.9903 5.32477 19.8164C6.88489 20.7295 8.71634 21.2367 10.6495 21.2367C12.5827 21.2367 14.4142 20.7295 15.9743 19.8164C19.1624 17.9903 21.2991 14.5411 21.2991 10.6184V0H16.0082ZM66 23.401H44.667V28H66V23.401Z" fill="white"/>
</svg>
