<svg width="103" height="30" viewBox="0 0 103 30" fill="none" xmlns="http://www.w3.org/2000/svg">
<path d="M102.209 20.7418H100.461V29.9616H102.209V20.7418Z" fill="white"/>
<path d="M99.4503 24.8847C99.4503 23.6539 99.0547 22.7968 96.9778 22.7968C95.6591 22.7968 94.5822 23.3462 94.5822 24.8957V25.0605H96.1536V24.8737C96.1382 24.7597 96.1481 24.6438 96.1824 24.5341C96.2167 24.4243 96.2746 24.3235 96.3522 24.2386C96.4298 24.1537 96.525 24.0868 96.6312 24.0428C96.7374 23.9987 96.852 23.9785 96.9668 23.9836C97.5492 23.9836 97.7745 24.3022 97.7745 24.8187C97.7745 25.3352 97.5987 25.4781 97.0767 25.6209L96.0932 25.8847C94.8899 26.2143 94.3679 26.7363 94.3679 28.011C94.3679 28.9231 94.802 29.9616 96.0163 29.9616C96.3616 30.0119 96.7141 29.9538 97.0251 29.7954C97.336 29.6369 97.5902 29.3859 97.7525 29.077C97.7971 29.3205 97.869 29.5583 97.9668 29.7858H99.6426C99.4638 29.3705 99.3902 28.9176 99.4284 28.4671L99.4503 24.8847ZM97.802 27.7198C97.8053 27.863 97.7788 28.0054 97.7242 28.1378C97.6696 28.2703 97.588 28.3899 97.4847 28.4891C97.3813 28.5883 97.2585 28.6649 97.1239 28.7141C96.9894 28.7633 96.846 28.784 96.7031 28.7748C96.2361 28.7748 96.0492 28.3407 96.0492 27.8242C96.0492 27.2143 96.324 26.8737 97.0328 26.7253C97.3104 26.6617 97.5722 26.542 97.802 26.3737V27.7198Z" fill="white"/>
<path d="M91.846 22.7966C91.4944 22.7786 91.1448 22.8604 90.8376 23.0325C90.5304 23.2045 90.2781 23.4599 90.1098 23.7692V22.7966H88.4614V29.9395H90.2087V25.2747C90.2087 24.5164 90.5383 24.1758 91.1318 24.1758C91.7252 24.1758 91.879 24.4395 91.879 25.1263V29.9999H93.6318V24.7252C93.5823 23.39 92.934 22.7966 91.846 22.7966Z" fill="white"/>
<path d="M84.7139 22.7967C82.7139 22.7967 82.0271 24.0495 82.0271 26.3792C82.0271 28.7088 82.6095 30 84.7139 29.9616C86.7139 29.9616 87.4007 28.7088 87.4007 26.3792C87.4007 24.0495 86.8128 22.7583 84.7139 22.7967ZM84.7139 28.7748C83.8513 28.7748 83.7744 27.7748 83.7744 26.3792C83.7744 24.9835 83.8513 23.9835 84.7139 23.9835C85.4227 23.9835 85.6535 24.6813 85.6535 26.3792C85.6535 28.077 85.4227 28.7748 84.7139 28.7748Z" fill="white"/>
<path d="M75.8239 24.0605C76.4833 24.0605 76.6096 24.7693 76.6096 25.4286H78.258C78.258 23.8187 77.4228 22.7968 75.8129 22.7968C74.203 22.7968 73.0657 23.5825 73.0657 26.3792C73.0657 29.1759 73.9283 29.9616 75.6756 29.9616C77.5217 29.9616 78.269 28.9616 78.269 27.1759H76.6206C76.6206 28.2748 76.3569 28.7748 75.7745 28.7748C74.9888 28.7748 74.8349 28.077 74.8349 26.3902C74.7964 24.8187 74.9338 24.0605 75.8239 24.0605Z" fill="white"/>
<path d="M72.038 24.8847C72.038 23.6539 71.6424 22.7968 69.5655 22.7968C68.2523 22.7968 67.1753 23.3462 67.1753 24.8957V25.0605H68.7413V24.8737C68.7259 24.7597 68.7357 24.6438 68.77 24.5341C68.8043 24.4243 68.8623 24.3235 68.9398 24.2386C69.0174 24.1537 69.1126 24.0868 69.2188 24.0428C69.325 23.9987 69.4396 23.9785 69.5545 23.9836C70.1369 23.9836 70.3622 24.3022 70.3622 24.8242C70.3622 25.3462 70.1863 25.4781 69.6699 25.6209L68.6808 25.8847C67.4775 26.2143 66.9556 26.7363 66.9556 28.011C66.9556 28.9231 67.3896 29.9616 68.6039 29.9616C68.9476 30.0095 69.2976 29.9502 69.6063 29.7919C69.9151 29.6336 70.1675 29.384 70.3292 29.077C70.3723 29.3216 70.4461 29.5597 70.549 29.7858H72.1973C72.0202 29.37 71.9467 28.9175 71.983 28.4671L72.038 24.8847ZM70.3622 27.7198C70.3655 27.8631 70.339 28.0054 70.2844 28.1378C70.2298 28.2703 70.1482 28.3899 70.0448 28.4891C69.9415 28.5883 69.8186 28.6649 69.6841 28.7141C69.5495 28.7633 69.4062 28.784 69.2633 28.7748C68.7907 28.7748 68.6039 28.3407 68.6039 27.8242C68.6039 27.2143 68.8786 26.8737 69.5874 26.7253C69.8566 26.6622 70.1105 26.5464 70.3347 26.3847L70.3622 27.7198Z" fill="white"/>
<path d="M63.7361 24.0605C64.3955 24.0605 64.5219 24.7693 64.5219 25.4286H66.1702C66.1702 23.8187 65.335 22.7968 63.7307 22.7968C62.1263 22.7968 60.9834 23.5825 60.9834 26.3792C60.9834 29.1759 61.846 29.9616 63.5933 29.9616C65.4394 29.9616 66.1867 28.9616 66.1867 27.1759H64.5383C64.5383 28.2748 64.2746 28.7748 63.6922 28.7748C62.9065 28.7748 62.7526 28.077 62.7526 26.3902C62.7252 24.8242 62.8625 24.0605 63.7361 24.0605Z" fill="white"/>
<path d="M58.2414 27.4726C58.2414 28.2308 57.9118 28.599 57.3129 28.599C56.7964 28.599 56.5656 28.3352 56.5656 27.6484V22.7968H54.7964V28.022C54.7964 29.3627 55.4447 29.9561 56.5326 29.9561C56.8843 29.9741 57.2339 29.8923 57.5411 29.7203C57.8483 29.5482 58.1006 29.2928 58.2689 28.9836V29.9561H59.9173V22.8132H58.2414V27.4726Z" fill="white"/>
<path d="M52.0382 23.6264C51.8892 23.3656 51.6717 23.1504 51.4093 23.0042C51.1469 22.858 50.8495 22.7862 50.5492 22.7968C49.1152 22.7968 48.4558 23.8462 48.4558 26.3792C48.4558 28.9122 49.1152 29.9616 50.5492 29.9616C50.8645 29.9752 51.177 29.8981 51.4497 29.7393C51.7225 29.5806 51.9439 29.3469 52.0877 29.066V29.9616H53.736V20.7418H52.0382V23.6264ZM51.0987 28.6209C50.3404 28.6209 50.1866 27.8627 50.1866 26.3792C50.1866 24.8957 50.3404 24.1374 51.0987 24.1374C51.8569 24.1374 52.0272 24.8957 52.0272 26.3792C52.0272 27.8627 51.8844 28.6209 51.0987 28.6209Z" fill="white"/>
<path d="M44.9449 22.7968C42.5877 22.7968 42.2361 24.4946 42.2361 26.3132C42.2361 28.011 42.335 29.9616 44.868 29.9616C46.5163 29.9616 47.2745 29.077 47.335 27.4946H45.7691C45.6647 28.3297 45.4229 28.7748 44.8405 28.7748C44.2581 28.7748 43.9833 27.9891 43.9833 27.1869V26.6374H47.4394V26.2473C47.4394 24.1759 46.9833 22.7968 44.9449 22.7968ZM43.9833 25.6044V25.3407C43.9833 24.7088 44.1866 23.9836 44.8789 23.9836C45.5712 23.9836 45.7306 24.566 45.7691 25.6319L43.9833 25.6044Z" fill="white"/>
<path d="M81.0165 22.8021H79.2693V29.967H81.0165V22.8021Z" fill="white"/>
<path d="M81.0165 20.7418H79.2693V22.2363H81.0165V20.7418Z" fill="white"/>
<path d="M23.9725 14.9835L35.956 2.99451L32.9615 0L20.9725 11.9835L17.978 14.9835L20.9725 17.978L14.9835 23.9725L2.99451 11.9835L0 14.9835L14.9835 29.9615L16.0494 28.8956L17.978 26.967L23.9725 20.9725L32.9615 29.9615L35.956 26.967L44.9451 17.978L47.9396 14.9835L44.9451 11.9835L41.9506 8.98901L38.9506 5.99451L35.956 8.98901L29.9615 14.9835L32.9615 17.978L38.9506 11.9835L41.9506 14.9835L32.9615 23.9725L26.967 17.978L23.9725 14.9835Z" fill="white"/>
</svg>
