<svg width="92" height="30" viewBox="0 0 92 30" fill="none" xmlns="http://www.w3.org/2000/svg">
<mask id="mask0_1356_25" style="mask-type:luminance" maskUnits="userSpaceOnUse" x="0" y="0" width="93" height="30">
<path d="M92.0064 0H0V30H92.0064V0Z" fill="white"/>
</mask>
<g mask="url(#mask0_1356_25)">
<path d="M72.062 23.2081C71.7159 22.9266 71.1883 22.7844 70.4778 22.7844C70.153 22.7844 69.7743 22.8079 69.3445 22.8562C69.0438 22.8893 68.7219 22.9583 68.6084 22.9846C68.4751 23.0163 68.3531 23.2164 68.329 23.4511C68.3021 23.7078 68.3446 23.9355 68.4822 23.9341C68.502 23.9341 68.5347 23.9258 68.5403 23.9245C69.0878 23.7713 69.7232 23.6788 70.2352 23.6788C70.6536 23.6788 70.9515 23.7464 71.1274 23.8803C71.3032 24.0142 71.3897 24.2198 71.3897 24.4959V25.2163C70.8933 25.0341 70.431 24.9444 70.004 24.9444C69.3856 24.9444 68.9077 25.0714 68.5687 25.3267C68.2283 25.5821 68.0581 25.9451 68.0581 26.4185V26.5938C68.0581 26.8809 68.1205 27.1279 68.2439 27.3336C68.3673 27.5392 68.5403 27.6993 68.7658 27.8111C68.9899 27.9229 69.2353 28.0057 69.5034 28.0582C69.7714 28.1092 70.0707 28.1355 70.404 28.1355C70.7813 28.1355 71.1685 28.1051 71.5642 28.0457C71.7472 28.0181 72.0932 27.9464 72.1032 27.9436C72.3854 27.8801 72.5811 27.6455 72.5783 27.4081V24.5014C72.5811 23.9189 72.4081 23.4897 72.062 23.2081ZM71.3926 27.3253C71.0593 27.4095 70.7614 27.4509 70.4948 27.4509C69.7019 27.4509 69.3062 27.1638 69.3062 26.5883V26.5386C69.3062 26.2791 69.397 26.0817 69.5785 25.9396C69.7601 25.8002 70.0267 25.7298 70.3771 25.7298C70.8338 25.7298 71.1727 25.7974 71.394 25.9313V27.3239H71.3926V27.3253Z" fill="white"/>
<path d="M91.4872 23.2081C91.1412 22.9266 90.6136 22.7844 89.903 22.7844C89.5782 22.7844 89.1995 22.8079 88.7697 22.8562C88.4691 22.8893 88.1471 22.9583 88.0336 22.9846C87.9003 23.0163 87.7798 23.2164 87.7556 23.4511C87.7287 23.7078 87.7712 23.9355 87.9088 23.9341C87.9287 23.9341 87.9627 23.9258 87.9684 23.9245C88.5159 23.7713 89.1513 23.6788 89.6619 23.6788C90.0817 23.6788 90.3781 23.7464 90.554 23.8803C90.7299 24.0142 90.8164 24.2198 90.8164 24.4959V25.2163C90.32 25.0341 89.8576 24.9444 89.4307 24.9444C88.8123 24.9444 88.3343 25.0714 87.9953 25.3267C87.6549 25.5821 87.4847 25.9451 87.4847 26.4185V26.5938C87.4847 26.8809 87.5471 27.1279 87.6705 27.3336C87.7939 27.5392 87.967 27.6993 88.1925 27.8111C88.4166 27.9229 88.6619 28.0057 88.93 28.0582C89.1981 28.1092 89.4973 28.1355 89.8306 28.1355C90.2079 28.1355 90.5951 28.1051 90.9923 28.0457C91.1752 28.0181 91.5213 27.9464 91.5312 27.9436C91.812 27.8801 92.0092 27.6455 92.0063 27.4081V24.5014C92.0063 23.9189 91.8333 23.4897 91.4872 23.2081ZM90.8178 27.3253C90.4845 27.4095 90.1852 27.4509 89.92 27.4509C89.1272 27.4509 88.7314 27.1638 88.7314 26.5883V26.5386C88.7314 26.2791 88.8208 26.0817 89.0038 25.9396C89.1853 25.8002 89.452 25.7298 89.8023 25.7298C90.259 25.7298 90.598 25.7974 90.8178 25.9313V27.3253Z" fill="white"/>
<path d="M86.2155 27.8732V24.7347C86.2155 24.1122 86.0452 23.625 85.7034 23.2786C85.3616 22.9307 84.8368 22.7568 84.1305 22.7568C83.5674 22.7568 82.9859 22.8755 82.3832 23.1157C82.0342 22.8755 81.5435 22.7568 80.9109 22.7568C80.5195 22.7568 80.1082 22.8093 79.6798 22.9142C79.3253 23.0011 79.0884 23.0729 78.8402 23.193C78.5622 23.3255 78.5778 23.6057 78.5778 23.6057V27.8539C78.5778 27.8539 78.5778 27.8815 78.5778 27.8995C78.5778 28.0333 78.8416 28.1438 79.1707 28.1438C79.4969 28.1438 79.7635 28.0361 79.7635 27.8995C79.7635 27.8898 79.7635 27.858 79.7635 27.858V23.9397C79.8784 23.8817 80.0415 23.8293 80.2486 23.7809C80.4571 23.7313 80.6429 23.7064 80.806 23.7064C81.145 23.7064 81.396 23.7754 81.5577 23.9121C81.7194 24.0501 81.8002 24.2419 81.8002 24.489V27.8208C81.8002 27.8208 81.8002 27.8705 81.8002 27.8995C81.8002 28.0333 82.0654 28.1438 82.3931 28.1438C82.7207 28.1438 82.9859 28.0361 82.9859 27.8995C82.9859 27.8788 82.9859 27.8318 82.9859 27.8318V24.028C83.1051 23.9479 83.2682 23.8748 83.4753 23.8085C83.6823 23.7409 83.8667 23.7078 84.0256 23.7078C84.3645 23.7078 84.6184 23.8072 84.7844 24.0059C84.9503 24.2047 85.0326 24.4821 85.0326 24.8368V27.8346C85.0326 27.8346 85.0326 27.8719 85.0326 27.8995C85.0326 28.0333 85.2978 28.1438 85.6254 28.1438C85.9516 28.1438 86.2183 28.0361 86.2183 27.8995C86.2154 27.8884 86.2155 27.8732 86.2155 27.8732Z" fill="white"/>
<path d="M64.6952 22.892C64.2286 22.892 63.7875 23.0024 63.3776 23.2232C63.3776 23.2232 63.3776 21.3931 63.3776 21.2565C63.3776 21.1212 63.0684 20.9915 62.7081 20.9915C62.3493 20.9915 62.0387 21.1033 62.0387 21.2537C62.0387 21.4014 62.0387 27.8593 62.0387 27.8593C62.0387 28.0111 62.338 28.134 62.7081 28.134C63.0783 28.134 63.3776 28.0125 63.3776 27.8607C63.3776 27.8593 63.3776 24.0307 63.3776 24.0307C63.7066 23.865 64.0357 23.7877 64.3435 23.7877C64.8541 23.7877 65.1037 24.0527 65.1037 24.5731V27.8566C65.1037 27.8579 65.1037 27.8621 65.1037 27.8635C65.1037 28.0153 65.4015 28.1354 65.7717 28.1354C66.1419 28.1354 66.4412 28.0125 66.4412 27.8607V24.66C66.4412 24.13 66.2937 23.6994 66.0086 23.3778C65.7235 23.0562 65.2852 22.892 64.6952 22.892Z" fill="white"/>
<path d="M77.5523 23.3834C77.5523 23.0935 77.4842 22.8672 77.3097 22.852C77.1353 22.8368 76.9793 22.823 76.7921 22.823C76.2843 22.823 75.6957 23.0107 75.429 23.353L75.4276 23.0852C75.4276 22.9955 75.3766 22.9141 75.2305 22.9141C75.2291 22.9141 74.8532 22.9141 74.8532 22.9141C74.8504 22.9141 74.8461 22.9141 74.8433 22.9141C74.5227 22.9141 74.2618 23.1473 74.2561 23.4344V27.6882C74.2561 27.6923 74.2561 27.9173 74.2561 27.9339C74.2561 28.1009 74.5894 28.1671 74.8433 28.1671C75.0518 28.1671 75.4305 28.1147 75.4305 27.938C75.4305 27.909 75.4305 27.7738 75.4305 27.7738V26.7455V24.5358C75.5595 24.2874 75.8787 23.9962 76.2786 23.8802C76.6077 23.7864 77.0048 23.7905 77.2445 23.8609C77.4204 23.9092 77.5523 23.6856 77.5523 23.3834Z" fill="white"/>
<path d="M60.3071 24.3386C60.2149 24.0598 60.0872 23.8279 59.9269 23.6457C59.7667 23.4622 59.571 23.3117 59.3384 23.193C59.1072 23.0743 58.8618 22.9888 58.5994 22.9363C58.3384 22.8852 58.0548 22.859 57.7498 22.859C57.4137 22.859 57.0619 22.8894 56.6932 22.9473C56.5045 22.9777 56.1684 23.0536 56.1684 23.0536C55.9202 23.1199 55.75 23.3048 55.75 23.5339V29.7738C55.75 29.9242 56.0464 30.0002 56.3315 30.0002C56.6435 30.0002 56.9116 29.9104 56.9116 29.7738C56.9116 29.6675 56.9116 29.5406 56.9116 29.5378V27.9271C57.3825 28.0292 57.8122 28.0817 58.1994 28.0817C58.9355 28.0817 59.4944 27.8484 59.8745 27.3861C60.256 26.9223 60.4461 26.264 60.4461 25.411V25.2882C60.4475 24.9348 60.4007 24.6174 60.3071 24.3386ZM59.2362 25.411C59.2362 26.6145 58.7767 27.2163 57.8534 27.2163C57.5059 27.2163 57.1938 27.168 56.9144 27.0728V27.0672H56.913V23.8569C57.1868 23.7755 57.4633 23.7341 57.7399 23.7341C57.9683 23.7341 58.1725 23.7672 58.3526 23.8307C58.5342 23.8955 58.693 23.9908 58.8292 24.1191C59.0987 24.3758 59.2348 24.7706 59.2348 25.3047L59.2362 25.411Z" fill="white"/>
<path d="M60.646 9.31224C60.2999 8.9175 59.8787 8.59316 59.3808 8.33644C58.883 8.07972 58.3526 7.89616 57.7923 7.78574C57.2307 7.67532 56.6208 7.62012 55.9613 7.62012C55.2379 7.62012 54.4777 7.68361 53.6849 7.8092C53.2792 7.87407 52.5573 8.03832 52.5573 8.03832C52.0226 8.18048 51.6581 8.57798 51.6581 9.07209V22.5083C51.6581 22.8313 52.2977 22.9955 52.909 22.9955C53.5827 22.9955 54.1586 22.8023 54.1586 22.5083C54.1586 22.2778 54.1586 22.0059 54.1586 22.0004V18.5347C55.1727 18.7569 56.096 18.8674 56.9286 18.8674C58.5128 18.8674 59.717 18.3677 60.5353 17.3698C61.3551 16.372 61.765 14.9545 61.765 13.1174V12.8538C61.765 12.0878 61.6657 11.406 61.4658 10.8056C61.2615 10.2038 60.9906 9.7056 60.646 9.31224ZM59.144 13.105C59.144 15.6915 58.154 16.9861 56.1726 16.9861C55.4251 16.9861 54.7529 16.8826 54.1557 16.677V9.76633C54.7458 9.59104 55.3386 9.50271 55.9357 9.50271C56.9101 9.50271 57.6888 9.77737 58.2717 10.3294C58.8532 10.8801 59.144 11.729 59.144 12.8773V13.105Z" fill="white"/>
<path d="M81.9165 8.75329C81.9165 8.1391 81.7704 7.66155 81.4002 7.62705C81.03 7.59254 80.6995 7.56494 80.3052 7.56494C79.2302 7.56494 77.9849 7.96106 77.4218 8.68704L77.4204 8.1184C77.4204 7.93069 77.3126 7.75679 77.002 7.75679C76.9977 7.75679 76.2035 7.75679 76.2035 7.75679V7.75817C76.1964 7.75817 76.1893 7.75679 76.1822 7.75679C75.5028 7.75679 74.9525 8.24814 74.9426 8.85819H74.9412V17.8571C74.9412 17.8667 74.9412 18.3401 74.9412 18.3774C74.9412 18.7294 75.6446 18.8688 76.1822 18.8688C76.6247 18.8688 77.4218 18.7597 77.4218 18.3857C77.4218 18.325 77.4218 18.0365 77.4218 18.0365V15.8586V11.1852C77.6941 10.6607 78.3692 10.0438 79.2188 9.79672C79.9152 9.59521 80.7549 9.60902 81.2626 9.75532C81.6371 9.86573 81.9165 9.39094 81.9165 8.75329Z" fill="white"/>
<path d="M37.4835 3.83972C36.7063 3.83972 36.1886 4.05917 36.1857 4.36006C36.1857 4.36006 36.1857 4.58089 36.1857 4.58365V10.1238H30.0444V4.8376L30.043 4.36144C30.043 4.02329 29.4317 3.8411 28.7452 3.8411C28.1098 3.8411 27.446 4.00535 27.446 4.36144V5.18956V18.3746C27.446 18.7293 28.1283 18.8894 28.7452 18.8894C29.3764 18.8894 30.0444 18.7307 30.0444 18.3718V12.114H36.1857V18.3691C36.1857 18.7114 36.8211 18.888 37.4849 18.888C38.1771 18.888 38.7841 18.7072 38.7841 18.3705V4.36006C38.7827 4.03709 38.2125 3.83972 37.4835 3.83972Z" fill="white"/>
<path d="M90.9099 8.4677C90.1795 7.87283 89.0632 7.57471 87.5641 7.57471C86.8762 7.57471 86.0791 7.62439 85.17 7.72515C84.5331 7.79554 83.8552 7.94184 83.6169 7.99705C83.3347 8.0633 83.0794 8.48564 83.0283 8.98251C82.9716 9.52355 83.0609 10.0052 83.3517 10.0039C83.3928 10.0039 83.4651 9.98592 83.4765 9.98316C84.631 9.65881 85.9756 9.4642 87.0535 9.4642C87.9371 9.4642 88.5654 9.60498 88.937 9.89068C89.3086 10.175 89.4944 10.6098 89.4944 11.1936V12.7146C88.4449 12.3295 87.4691 12.1376 86.5684 12.1376C85.265 12.1376 84.2551 12.4068 83.5361 12.9451C82.817 13.482 82.4581 14.2521 82.4581 15.2514V15.6199C82.4581 16.2286 82.5886 16.7489 82.8496 17.1823C83.112 17.617 83.4779 17.9538 83.9516 18.1912C84.4253 18.43 84.9444 18.6039 85.5104 18.7101C86.0763 18.8164 86.7088 18.8716 87.4123 18.8716C88.2094 18.8716 89.0264 18.8081 89.8632 18.6812C90.249 18.6218 90.9822 18.47 91.0035 18.4645C91.5978 18.332 92.0148 17.8337 92.0091 17.3327V11.1922C92.0063 9.97211 91.6403 9.06394 90.9099 8.4677ZM89.4944 17.1657C88.7909 17.3424 88.1584 17.4307 87.5981 17.4307C85.9245 17.4307 85.0863 16.822 85.0863 15.6075V15.5053C85.0863 14.9588 85.2778 14.5392 85.6621 14.2424C86.0451 13.9471 86.6081 13.7994 87.3499 13.7994C88.313 13.7994 89.0292 13.9416 89.4944 14.2259V17.1657Z" fill="white"/>
<path d="M48.9803 7.59106C48.3874 7.59106 47.7492 7.77325 47.7279 8.15142C47.7222 8.23976 47.7109 8.45921 47.7109 8.45921C47.5322 11.7869 46.8315 14.4755 45.548 16.6176C45.548 16.6176 44.5495 15.1104 43.6758 12.0905C43.168 10.3308 43.0219 8.14452 43.0219 8.14314C43.0219 7.68216 42.3397 7.59106 41.7369 7.59106C41.2235 7.59106 40.4278 7.76221 40.4406 8.15004C40.4562 8.62207 40.7044 10.2659 40.9512 11.2831C41.2051 12.321 41.4518 13.2209 41.727 13.9772C42.0007 14.7336 42.3057 15.4527 42.6418 16.1345C42.9765 16.8177 43.2645 17.3532 43.5027 17.741C43.7424 18.1289 43.9651 18.4587 44.1736 18.732C43.5722 19.5905 42.3525 21.0466 41.3001 22.2322C41.3001 22.2322 41.2121 22.3233 41.2178 22.4296C41.2363 22.7429 41.839 22.9996 42.6035 22.9996C43.2347 22.9996 43.7524 22.8009 44.0616 22.431C44.8289 21.4786 45.2941 20.8893 45.6969 20.362C46.1493 19.7699 46.7209 18.9404 47.4074 17.8735C48.0953 16.8066 48.6044 15.8626 48.9363 15.0386C49.2682 14.2146 49.5646 13.2306 49.827 12.0891C50.0894 10.9477 50.2199 9.77868 50.2199 8.58757C50.2199 8.58757 50.2199 8.56824 50.2199 8.16247C50.2213 7.75393 49.6653 7.59106 48.9803 7.59106Z" fill="white"/>
<path d="M72.0563 8.93006C71.1869 8.02603 69.9175 7.57471 68.2453 7.57471C66.5731 7.57471 65.3193 8.03845 64.4811 8.96457C63.6428 9.89206 63.223 11.2516 63.223 13.0431V13.3881C63.223 15.3038 63.718 16.6978 64.7108 17.5701C65.7008 18.4438 67.1957 18.8799 69.1942 18.8799C69.5246 18.8799 69.8551 18.8703 70.1856 18.844C70.4777 18.8219 70.7713 18.7874 71.0607 18.7364C71.3188 18.6894 71.5727 18.6315 71.8223 18.55C72.0464 18.4783 72.2648 18.3913 72.4719 18.2837C72.5698 18.2326 72.6648 18.1788 72.7556 18.118C72.9187 18.0118 73.0591 17.8917 73.1541 17.7206C73.2463 17.5522 73.2945 17.3617 73.3257 17.1754C73.408 16.6647 73.3002 16.2244 73.0775 16.1913C73.0364 16.1844 72.9995 16.1858 72.947 16.2106C71.9074 16.742 70.9032 16.9877 69.5388 16.9877C68.2637 16.9877 67.3461 16.7655 66.7873 16.3238C66.2284 15.8821 65.9178 15.0954 65.854 13.9636H72.7215C73.0662 13.9636 73.3598 13.6973 73.3598 13.3605V13.0872C73.3612 11.2198 72.9258 9.83409 72.0563 8.93006ZM65.8327 12.3046C65.8966 11.3468 66.1334 10.636 66.5462 10.1681C66.9589 9.70159 67.5716 9.46696 68.3885 9.46696C69.9813 9.46696 70.8011 10.4138 70.8479 12.3046H65.8327Z" fill="white"/>
<path d="M20.2934 9.41848C19.7885 9.41848 19.2793 9.61446 18.8694 9.97607C18.4851 10.3156 18.2127 10.7559 18.0113 11.2238C18.9318 11.9111 19.719 12.7724 20.2197 13.7923C20.3757 14.1098 20.5076 14.4383 20.6154 14.775C20.6849 14.9959 20.743 15.2194 20.7884 15.4472C21.3245 14.902 21.7883 14.2878 22.1074 13.6032C22.6549 12.4259 22.5897 10.9105 21.6096 9.95537C21.2323 9.58962 20.7657 9.41848 20.2934 9.41848ZM12.3863 0C11.5665 0 10.7609 0.172523 10.1312 0.666634C8.53838 1.91571 8.79935 4.33244 8.04338 6.01766C7.52144 7.17979 6.73569 8.21494 5.68614 8.97543C5.39822 9.18384 5.10321 9.38535 4.79827 9.56892C4.51319 9.74006 4.21676 9.8974 3.90898 10.0285C3.60972 10.1555 3.29769 10.259 2.97998 10.3294C2.6481 10.4039 2.30912 10.4412 1.97014 10.4495C1.93326 10.4509 1.89639 10.4509 1.86093 10.4509C1.57443 10.4509 1.28793 10.4274 1.00426 10.3901C0.910654 10.3777 0.815627 10.3639 0.7206 10.3639C0.687978 10.3639 0.653939 10.3653 0.622736 10.3694C0.414243 10.3957 0.210004 10.4978 0.106467 10.68C0.071009 10.7407 0.0483168 10.807 0.0398069 10.876C0.0341336 10.9174 0.0327148 10.9339 0.0327148 10.9339C0.18022 12.143 0.963132 13.1864 2.01127 13.8475C2.41124 12.7227 3.38137 11.9056 4.40256 11.2914C5.63366 10.542 6.99241 9.99402 8.4008 9.65587C9.4844 9.39501 10.6034 9.25147 11.714 9.25147C12.1281 9.25147 12.5409 9.27217 12.9508 9.31358C13.4089 8.77254 13.8982 8.25497 14.4471 7.80088C14.6216 7.65734 14.8017 7.51932 14.9889 7.38958C15.8498 6.79472 16.9036 6.32545 17.9759 6.32407C17.9773 6.32407 17.9801 6.32407 17.9816 6.32407C19.0864 6.32407 20.1587 6.65808 21.038 7.31229C22.0762 8.0852 22.7769 9.24595 23.0194 10.4909C23.3995 12.4494 22.8223 14.6053 21.5515 16.1635C21.3472 16.4133 21.126 16.648 20.9033 16.8798C20.8877 17.2083 20.8409 17.5354 20.7643 17.8542C20.6806 18.1938 20.5629 18.525 20.4111 18.8411C20.3402 18.986 20.265 19.1268 20.1799 19.2662C20.1998 19.2593 20.2197 19.2524 20.2381 19.2441C20.4324 19.1627 20.6154 19.0385 20.7813 18.9129C20.8806 18.8369 21.0012 18.7321 21.0749 18.6299C21.0763 18.6272 21.0792 18.6244 21.0806 18.6216C22.2464 17.0109 23.2378 14.5887 23.374 12.4646C23.5555 9.66967 22.7216 6.70086 20.9473 4.4746C20.7161 4.18476 20.475 3.9032 20.2168 3.63544C18.495 1.83152 16.1718 0.56312 13.6755 0.120077C13.2543 0.0483063 12.8174 0 12.3863 0Z" fill="white"/>
<path d="M20.7897 15.45C20.3472 15.8999 19.8522 16.2809 19.3487 16.6645C19.2494 16.7418 19.1473 16.8178 19.0494 16.8978C18.6012 17.2525 18.1601 17.6307 17.8382 18.1041C17.6822 18.3346 17.5573 18.5982 17.4878 18.8673C17.3942 19.2262 17.3957 19.6416 17.6098 19.9591C17.8339 20.289 18.1672 20.4159 18.5275 20.4159C18.8069 20.4159 19.1019 20.3386 19.37 20.2199C19.3997 20.1937 19.4281 20.173 19.4565 20.1468C19.7274 19.9011 19.9571 19.6278 20.1486 19.3201C20.1585 19.3035 20.1685 19.2869 20.1784 19.2704C20.099 19.2966 20.0167 19.3132 19.9359 19.3132C19.8678 19.3132 19.804 19.3021 19.7416 19.2786C19.5501 19.2041 19.4522 19.0178 19.4636 18.8232C19.4707 18.6921 19.5203 18.5665 19.5785 18.4478C19.8238 17.9523 20.2266 17.5631 20.6195 17.1766C20.7145 17.0827 20.8067 16.9806 20.9003 16.884C20.9017 16.8674 20.9017 16.8523 20.9032 16.8357C20.9173 16.4906 20.8975 16.1442 20.8493 15.8005C20.8322 15.6846 20.8124 15.5659 20.7897 15.45ZM12.9478 9.31775C12.7053 9.60345 12.4713 9.89605 12.2401 10.1887C10.9068 11.878 9.29422 13.5191 7.18801 14.2533C6.46325 14.5101 5.68743 14.6508 4.91728 14.6508C4.16415 14.6508 3.41528 14.517 2.72598 14.2244C2.47493 14.1195 2.23524 13.9925 2.00689 13.8489C1.97427 13.94 1.9459 14.0311 1.92179 14.125C1.39276 16.1608 2.56571 18.3663 3.98403 19.8086C5.05202 20.8962 6.39517 21.7064 7.8376 22.2544C8.78504 22.5608 9.81758 22.7305 10.8416 22.7305C13.2003 22.7305 15.5107 21.8334 16.617 19.6513C17.1404 18.6189 17.2893 17.4595 17.3517 16.3223C17.4141 15.1767 17.3857 14.0201 17.563 12.8828C17.6354 12.4218 17.7417 11.9636 17.8992 11.5233C17.9346 11.4239 17.9743 11.3246 18.0155 11.2266C17.7134 11.0002 17.3957 10.7932 17.0694 10.6069C15.7915 9.87121 14.3874 9.46129 12.9478 9.31775Z" fill="white"/>
<path d="M21.072 18.6355C20.9954 18.7376 20.8777 18.8425 20.7784 18.9184C20.6124 19.044 20.4295 19.1682 20.2352 19.2497C20.2167 19.2579 20.1969 19.2648 20.177 19.2718C20.1671 19.2883 20.1572 19.3049 20.1472 19.3214C19.9558 19.6292 19.726 19.9039 19.4551 20.1482C19.4253 20.1744 19.3969 20.1951 19.3686 20.2213C19.3686 20.2213 19.3686 20.2213 19.37 20.2213C19.3898 20.213 19.4083 20.2048 19.4267 20.1951C19.5374 20.1413 19.7941 20.0074 20.0494 19.7852C20.0735 19.7645 20.0962 19.7438 20.1203 19.7217C20.1472 19.6969 20.1742 19.672 20.1983 19.6485C20.4919 19.3697 20.7883 19.0261 21.072 18.6355ZM0.00709203 11.2873C0.00425539 11.3466 0.00283694 11.4046 0.00141862 11.464C3.03017e-07 11.5233 0 11.5813 0 11.642C0 11.7014 0.00141893 11.7607 0.00283725 11.8201C0.00425556 11.8808 0.00567401 11.9388 0.00851065 11.9995C0.0113473 12.0602 0.0141839 12.1196 0.0184388 12.1803C0.0226938 12.2396 0.0255299 12.299 0.0312032 12.3597C0.0964459 13.1326 0.24537 13.8973 0.472301 14.6426C0.795678 15.6984 1.28216 16.7336 1.91331 17.69C2.12323 18.0047 2.34874 18.3098 2.58702 18.6037C3.4919 19.712 4.61096 20.6492 5.86333 21.3669C5.92148 21.3986 5.9768 21.429 6.03637 21.458C6.31861 21.6043 6.60086 21.7561 6.8902 21.8914C6.97671 21.93 7.0604 21.9673 7.14691 22.0032C7.37101 22.0956 7.60219 22.1812 7.83905 22.2585C6.39804 21.7106 5.05489 20.9018 3.98548 19.8128C2.56858 18.3691 1.39421 16.1649 1.92324 14.1291C1.94735 14.0353 1.97714 13.9428 2.00834 13.8531C2.00834 13.8517 1.98139 13.8351 1.97856 13.8338C1.96863 13.8269 1.9587 13.82 1.94735 13.8144C1.9275 13.8006 1.90622 13.7882 1.88637 13.7744C1.84665 13.7468 1.80694 13.7192 1.76864 13.6916C1.72893 13.664 1.69064 13.635 1.65376 13.606C1.61547 13.5771 1.57717 13.5467 1.54171 13.5177C1.50484 13.4873 1.46796 13.457 1.4325 13.4266C1.39563 13.3949 1.36017 13.3631 1.32613 13.3328C1.29209 13.3024 1.25521 13.2679 1.22259 13.2361C1.18855 13.203 1.15451 13.1685 1.12331 13.1354C1.09069 13.1009 1.05807 13.0664 1.02686 13.0319C0.994243 12.996 0.96304 12.9615 0.934673 12.9256C0.90347 12.8897 0.873686 12.8524 0.845319 12.8166C0.815535 12.7793 0.787168 12.742 0.758802 12.7048C0.730435 12.6675 0.703487 12.6289 0.676539 12.5916C0.649591 12.5529 0.624061 12.5129 0.598531 12.4757C0.573001 12.4356 0.54889 12.3956 0.524779 12.357C0.500668 12.3183 0.477975 12.2755 0.455282 12.2355C0.432588 12.1941 0.411313 12.1527 0.390038 12.1127C0.368763 12.0713 0.348908 12.0285 0.329051 11.9871C0.309195 11.9443 0.290756 11.9029 0.273736 11.8601C0.255298 11.8173 0.238279 11.7731 0.222677 11.7303C0.207076 11.6862 0.191473 11.642 0.17729 11.5992C0.163107 11.5551 0.148925 11.5109 0.13616 11.4653C0.123395 11.4198 0.112048 11.3756 0.100702 11.3301C0.0893551 11.2845 0.0794259 11.239 0.070916 11.1934C0.0624061 11.1465 0.0538964 11.101 0.0468048 11.0554C0.0411315 11.0195 0.0368768 10.9837 0.0326218 10.9492C0.0212753 11.0002 0.00851035 11.228 0.00709203 11.2873ZM17.9786 6.32825C17.9772 6.32825 17.9744 6.32825 17.9729 6.32825C16.8993 6.32963 15.8469 6.7989 14.986 7.39376C14.7987 7.52212 14.6186 7.65876 14.4442 7.80506C13.8953 8.25914 13.4074 8.77672 12.9478 9.31776C14.3874 9.46268 15.7902 9.87122 17.0666 10.6055C17.3929 10.7932 17.7091 11.0002 18.0127 11.2252C18.2126 10.7573 18.4864 10.317 18.8707 9.97749C19.2806 9.61588 19.7898 9.41989 20.2947 9.41989C20.7656 9.41989 21.2337 9.59104 21.6095 9.95817C22.5924 10.9146 22.6548 12.4287 22.1073 13.606C21.7896 14.2906 21.3244 14.9062 20.7883 15.45C20.8124 15.5659 20.8323 15.6846 20.8493 15.8019C20.8975 16.1442 20.9174 16.4907 20.9032 16.8371C20.9032 16.8536 20.9018 16.8688 20.9004 16.8854C21.1245 16.6535 21.3471 16.4189 21.5485 16.1691C22.8193 14.6122 23.3966 12.455 23.0165 10.4964C22.774 9.25151 22.0733 8.09076 21.0351 7.31785C20.1557 6.66225 19.0821 6.32825 17.9786 6.32825Z" fill="white"/>
</g>
</svg>
