<svg width="84" height="30" viewBox="0 0 84 30" fill="none" xmlns="http://www.w3.org/2000/svg">
<path d="M18.4532 0C6.86869 17.3225 13.9424 25.1588 17.5305 29.7988C6.9712 24.9526 7.17624 11.7545 7.27876 7.63014C7.36077 4.33062 14.7625 1.16858 18.4532 0Z" fill="white"/>
<path d="M4.65837 8.2488C5.58103 22.478 14.0565 28.0475 18.0882 29.7988C9.39457 30.4478 3.41028 19.8706 1.99291 17.1163C0.85902 14.9128 2.65031 10.3613 4.65837 8.2488Z" fill="white"/>
<path d="M0.355423 18.5598C5.6717 28.0181 13.3214 29.0187 16.6648 28.8783C10.9119 32.2181 3.32379 26.9513 1.44456 25.5329C-0.0588304 24.3982 -0.327443 20.6781 0.355423 18.5598Z" fill="white"/>
<path d="M29.1044 7.65571H30.2755V17.2194H29.2438V9.57685L26.0649 17.2194H25.089L22.0495 9.6049V17.2194H21.0038V7.65571H22.2865L25.6188 16.0414L29.1044 7.65571Z" fill="white"/>
<path d="M38.337 10.6566V17.2194H37.3889V16.2518C37.1193 16.6257 36.7894 16.9202 36.399 17.1352C36.0086 17.3409 35.581 17.4437 35.1163 17.4437C34.4935 17.4437 33.9358 17.2942 33.4432 16.995C32.9506 16.6958 32.5648 16.2798 32.286 15.747C32.0071 15.2141 31.8677 14.6064 31.8677 13.924C31.8677 13.2509 32.0025 12.6526 32.272 12.129C32.5509 11.5962 32.932 11.1801 33.4153 10.881C33.9079 10.5818 34.4656 10.4323 35.0884 10.4323C35.5624 10.4323 35.9946 10.5398 36.385 10.7548C36.7847 10.9605 37.1193 11.2549 37.3889 11.6382V10.6566H38.337ZM35.0884 16.5743C35.5345 16.5743 35.9296 16.4621 36.2735 16.2378C36.6267 16.0134 36.9009 15.7002 37.0961 15.2982C37.2913 14.8962 37.3889 14.4428 37.3889 13.938C37.3889 13.4332 37.2913 12.9798 37.0961 12.5778C36.9009 12.1758 36.6267 11.8626 36.2735 11.6382C35.9296 11.4139 35.5345 11.3017 35.0884 11.3017C34.6515 11.3017 34.2611 11.4139 33.9172 11.6382C33.5733 11.8626 33.3038 12.1758 33.1086 12.5778C32.9134 12.9704 32.8158 13.4191 32.8158 13.924C32.8158 14.4381 32.9134 14.8962 33.1086 15.2982C33.3038 15.7002 33.5733 16.0134 33.9172 16.2378C34.2611 16.4621 34.6515 16.5743 35.0884 16.5743Z" fill="white"/>
<path d="M43.1966 10.4323C43.652 10.4323 44.0703 10.5257 44.4514 10.7127C44.8418 10.8997 45.1485 11.1755 45.3716 11.5401C45.6039 11.9047 45.7201 12.3347 45.7201 12.8302V17.2194H44.772V13.2509C44.772 11.9514 44.1958 11.3017 43.0432 11.3017C42.374 11.3017 41.872 11.5401 41.5374 12.0168C41.2028 12.4936 41.0355 13.134 41.0355 13.938V17.2194H40.0874V10.6566H41.0355V11.7504C41.2586 11.3297 41.5514 11.0072 41.9139 10.7828C42.2857 10.5491 42.7132 10.4323 43.1966 10.4323Z" fill="white"/>
<path d="M47.9246 17.2194V11.526H46.8092V10.6566H47.9246V8.48306H48.8726V10.6566H50.3784V11.526H48.8726V17.2194H47.9246Z" fill="white"/>
<path d="M54.232 10.4323C54.8176 10.4323 55.3474 10.5772 55.8214 10.867C56.2954 11.1568 56.6672 11.5541 56.9368 12.0589C57.2064 12.5544 57.3411 13.1106 57.3411 13.7277C57.3411 13.9053 57.3365 14.0408 57.3272 14.1343H51.9594C51.9965 14.8074 52.215 15.3824 52.6147 15.8591C53.0143 16.3359 53.5581 16.5743 54.2459 16.5743C54.8036 16.5743 55.2637 16.4715 55.6262 16.2658C55.998 16.0508 56.2954 15.7563 56.5185 15.3824L57.2714 15.8872C56.9647 16.3733 56.5604 16.7566 56.0584 17.0371C55.5565 17.3082 54.9616 17.4437 54.2738 17.4437C53.6417 17.4437 53.0794 17.2942 52.5868 16.995C52.0941 16.6958 51.7084 16.2798 51.4295 15.747C51.1507 15.2141 51.0113 14.6111 51.0113 13.938C51.0113 13.2649 51.1461 12.6619 51.4156 12.129C51.6945 11.5962 52.0755 11.1801 52.5589 10.881C53.0515 10.5818 53.6092 10.4323 54.232 10.4323ZM56.393 13.349C56.3001 12.6666 56.0724 12.1571 55.7099 11.8205C55.3474 11.4746 54.8547 11.3017 54.232 11.3017C53.6278 11.3017 53.1305 11.498 52.7401 11.8906C52.359 12.2739 52.1174 12.7601 52.0151 13.349H56.393Z" fill="white"/>
<path d="M61.5711 17.4437C60.9391 17.4437 60.3767 17.2942 59.8841 16.995C59.3915 16.6958 59.0057 16.2798 58.7269 15.747C58.448 15.2141 58.3086 14.6111 58.3086 13.938C58.3086 13.2649 58.4434 12.6619 58.7129 12.129C58.9918 11.5962 59.3775 11.1801 59.8702 10.881C60.3628 10.5818 60.9205 10.4323 61.5432 10.4323C62.0731 10.4323 62.5332 10.5491 62.9235 10.7828C63.3232 11.0072 63.6857 11.3297 64.011 11.7504L63.3139 12.2973C62.8585 11.6336 62.2682 11.3017 61.5432 11.3017C61.1064 11.3017 60.7113 11.4139 60.3581 11.6382C60.0142 11.8626 59.7447 12.1758 59.5495 12.5778C59.3543 12.9798 59.2567 13.4332 59.2567 13.938C59.2567 14.4428 59.3543 14.8962 59.5495 15.2982C59.7447 15.7002 60.0142 16.0134 60.3581 16.2378C60.7113 16.4621 61.1064 16.5743 61.5432 16.5743C61.9894 16.5743 62.3565 16.4995 62.6447 16.3499C62.9328 16.191 63.1931 15.962 63.4255 15.6628L64.1644 16.1817C63.8577 16.565 63.4766 16.8735 63.0211 17.1072C62.575 17.3316 62.0916 17.4437 61.5711 17.4437Z" fill="white"/>
<path d="M68.2295 17.4437C67.6067 17.4437 67.049 17.2942 66.5564 16.995C66.0638 16.6958 65.678 16.2798 65.3992 15.747C65.1203 15.2047 64.9809 14.5971 64.9809 13.924C64.9809 13.2509 65.1157 12.6526 65.3852 12.129C65.6641 11.5962 66.0452 11.1801 66.5285 10.881C67.0212 10.5818 67.5789 10.4323 68.2016 10.4323C68.8244 10.4323 69.3821 10.5818 69.8747 10.881C70.3673 11.1801 70.7531 11.5962 71.0319 12.129C71.3108 12.6619 71.4502 13.2649 71.4502 13.938C71.4502 14.6111 71.3108 15.2141 71.0319 15.747C70.7624 16.2798 70.3813 16.6958 69.8886 16.995C69.4053 17.2942 68.8523 17.4437 68.2295 17.4437ZM68.2016 16.5743C68.6478 16.5743 69.0428 16.4621 69.3867 16.2378C69.7399 16.0134 70.0141 15.7002 70.2093 15.2982C70.4045 14.8962 70.5021 14.4428 70.5021 13.938C70.5021 13.4332 70.4045 12.9798 70.2093 12.5778C70.0141 12.1758 69.7399 11.8626 69.3867 11.6382C69.0428 11.4139 68.6478 11.3017 68.2016 11.3017C67.7647 11.3017 67.3744 11.4139 67.0305 11.6382C66.6865 11.8626 66.417 12.1758 66.2218 12.5778C66.0266 12.9704 65.929 13.4191 65.929 13.924C65.929 14.4381 66.0266 14.8962 66.2218 15.2982C66.417 15.7002 66.6865 16.0134 67.0305 16.2378C67.3744 16.4621 67.7647 16.5743 68.2016 16.5743Z" fill="white"/>
<path d="M75.9989 10.4323C76.222 10.4323 76.4358 10.465 76.6403 10.5304V11.3998C76.4451 11.3064 76.2313 11.2596 75.9989 11.2596C75.5992 11.2596 75.2274 11.3718 74.8835 11.5962C74.5396 11.8205 74.2608 12.1477 74.047 12.5778C73.8425 12.9985 73.7402 13.4986 73.7402 14.0782V17.2194H72.7922V10.6566H73.7402V11.9748C73.9912 11.4887 74.3072 11.11 74.6883 10.8389C75.0787 10.5678 75.5156 10.4323 75.9989 10.4323Z" fill="white"/>
<path d="M80.7514 10.4323C81.3742 10.4323 81.9319 10.5818 82.4245 10.881C82.9171 11.1801 83.3029 11.5962 83.5817 12.129C83.8606 12.6619 84 13.2696 84 13.952C84 14.6251 83.8606 15.2281 83.5817 15.761C83.3122 16.2845 82.9311 16.6958 82.4384 16.995C81.9551 17.2942 81.4021 17.4437 80.7793 17.4437C80.3053 17.4437 79.8684 17.3409 79.4687 17.1352C79.0783 16.9202 78.7484 16.6211 78.4788 16.2378V20.024H77.5307V10.6566H78.4788V11.6242C78.7484 11.2503 79.0783 10.9605 79.4687 10.7548C79.8591 10.5398 80.2867 10.4323 80.7514 10.4323ZM80.7793 16.5743C81.2162 16.5743 81.6065 16.4621 81.9505 16.2378C82.2944 16.0134 82.5639 15.7049 82.7591 15.3122C82.9543 14.9103 83.0519 14.4568 83.0519 13.952C83.0519 13.4378 82.9543 12.9798 82.7591 12.5778C82.5639 12.1758 82.2944 11.8626 81.9505 11.6382C81.6065 11.4139 81.2162 11.3017 80.7793 11.3017C80.3331 11.3017 79.9335 11.4139 79.5803 11.6382C79.2363 11.8626 78.9668 12.1758 78.7716 12.5778C78.5764 12.9798 78.4788 13.4332 78.4788 13.938C78.4788 14.4428 78.5764 14.8962 78.7716 15.2982C78.9668 15.7002 79.2363 16.0134 79.5803 16.2378C79.9335 16.4621 80.3331 16.5743 80.7793 16.5743Z" fill="white"/>
<path d="M23.0673 29.8169C22.4353 29.8169 21.8776 29.6814 21.3942 29.4103C20.9202 29.1392 20.5577 28.7559 20.3067 28.2604L21.1572 27.8397C21.5011 28.5782 22.175 28.9475 23.1788 28.9475C23.6622 28.9475 24.0619 28.8587 24.3779 28.6811C24.6939 28.5034 24.8519 28.2277 24.8519 27.8537C24.8519 27.4704 24.7218 27.1853 24.4615 26.9983C24.2106 26.8113 23.7644 26.6898 23.1231 26.6337C22.2308 26.5589 21.5894 26.3579 21.199 26.0307C20.8179 25.7035 20.6274 25.2688 20.6274 24.7266C20.6274 24.1189 20.8458 23.6468 21.2827 23.3103C21.7195 22.9737 22.3191 22.8055 23.0813 22.8055C24.3732 22.8055 25.2516 23.3196 25.7164 24.348L24.8659 24.7687C24.7079 24.3947 24.4755 24.1189 24.1688 23.9413C23.8713 23.7637 23.4856 23.6749 23.0115 23.6749C22.5282 23.6749 22.1564 23.7637 21.8961 23.9413C21.6452 24.1189 21.5197 24.3713 21.5197 24.6986C21.5197 25.0071 21.6545 25.2595 21.924 25.4558C22.2029 25.6428 22.6769 25.7643 23.3462 25.8204C24.1734 25.8952 24.7869 26.1008 25.1866 26.4374C25.5955 26.7646 25.8 27.1993 25.8 27.7415C25.8 28.1809 25.6745 28.5595 25.4236 28.8774C25.1726 29.1859 24.838 29.4196 24.4197 29.5785C24.0014 29.7375 23.5506 29.8169 23.0673 29.8169Z" fill="white"/>
<path d="M31.2636 29.5926L28.977 26.213L28.1823 26.9843V29.5926H27.2342V19.4119H28.1823V25.7783L31.0405 23.0298H32.2674L29.6323 25.582L32.3232 29.5926H31.2636Z" fill="white"/>
<path d="M33.8227 29.5926V23.0298H34.7708V29.5926H33.8227ZM34.2967 21.7537C34.0829 21.7537 33.9017 21.6789 33.753 21.5294C33.6135 21.3798 33.5438 21.1975 33.5438 20.9825C33.5438 20.7768 33.6135 20.6038 33.753 20.4636C33.9017 20.314 34.0829 20.2393 34.2967 20.2393C34.5012 20.2393 34.6778 20.314 34.8265 20.4636C34.9753 20.6038 35.0496 20.7815 35.0496 20.9965C35.0496 21.2022 34.9753 21.3798 34.8265 21.5294C34.6778 21.6789 34.5012 21.7537 34.2967 21.7537Z" fill="white"/>
<path d="M40.1467 22.8055C40.6021 22.8055 41.0204 22.8989 41.4015 23.0859C41.7919 23.2729 42.0986 23.5487 42.3217 23.9133C42.554 24.2779 42.6702 24.7079 42.6702 25.2034V29.5926H41.7221V25.6241C41.7221 24.3246 41.1459 23.6749 39.9933 23.6749C39.324 23.6749 38.8221 23.9133 38.4875 24.39C38.1529 24.8668 37.9856 25.5072 37.9856 26.3112V29.5926H37.0375V23.0298H37.9856V24.1236C38.2087 23.7029 38.5014 23.3804 38.864 23.156C39.2357 22.9223 39.6633 22.8055 40.1467 22.8055Z" fill="white"/>
<path d="M47.3564 29.8169C46.7243 29.8169 46.162 29.6674 45.6694 29.3682C45.1767 29.069 44.791 28.653 44.5122 28.1202C44.2333 27.5873 44.0939 26.9843 44.0939 26.3112C44.0939 25.6381 44.2287 25.0351 44.4982 24.5022C44.7771 23.9694 45.1628 23.5533 45.6554 23.2542C46.1481 22.955 46.7058 22.8055 47.3285 22.8055C47.8583 22.8055 48.3184 22.9223 48.7088 23.156C49.1085 23.3804 49.471 23.7029 49.7963 24.1236L49.0992 24.6705C48.6438 24.0068 48.0535 23.6749 47.3285 23.6749C46.8917 23.6749 46.4966 23.7871 46.1434 24.0114C45.7995 24.2358 45.5299 24.549 45.3348 24.951C45.1396 25.353 45.042 25.8064 45.042 26.3112C45.042 26.816 45.1396 27.2694 45.3348 27.6714C45.5299 28.0734 45.7995 28.3866 46.1434 28.611C46.4966 28.8353 46.8917 28.9475 47.3285 28.9475C47.7747 28.9475 48.1418 28.8727 48.43 28.7231C48.7181 28.5642 48.9784 28.3352 49.2107 28.036L49.9497 28.5549C49.643 28.9382 49.2619 29.2467 48.8064 29.4804C48.3603 29.7047 47.8769 29.8169 47.3564 29.8169Z" fill="white"/>
<path d="M57.2355 23.0298V29.5926H56.2874V28.625C56.0178 28.9989 55.6879 29.2934 55.2975 29.5084C54.9071 29.7141 54.4795 29.8169 54.0148 29.8169C53.392 29.8169 52.8343 29.6674 52.3417 29.3682C51.8491 29.069 51.4633 28.653 51.1845 28.1202C50.9056 27.5873 50.7662 26.9796 50.7662 26.2972C50.7662 25.6241 50.901 25.0258 51.1705 24.5022C51.4494 23.9694 51.8305 23.5533 52.3138 23.2542C52.8064 22.955 53.3641 22.8055 53.9869 22.8055C54.4609 22.8055 54.8931 22.913 55.2835 23.128C55.6832 23.3337 56.0178 23.6281 56.2874 24.0114V23.0298H57.2355ZM53.9869 28.9475C54.433 28.9475 54.8281 28.8353 55.172 28.611C55.5252 28.3866 55.7994 28.0734 55.9946 27.6714C56.1898 27.2694 56.2874 26.816 56.2874 26.3112C56.2874 25.8064 56.1898 25.353 55.9946 24.951C55.7994 24.549 55.5252 24.2358 55.172 24.0114C54.8281 23.7871 54.433 23.6749 53.9869 23.6749C53.55 23.6749 53.1596 23.7871 52.8157 24.0114C52.4718 24.2358 52.2023 24.549 52.0071 24.951C51.8119 25.3436 51.7143 25.7923 51.7143 26.2972C51.7143 26.8113 51.8119 27.2694 52.0071 27.6714C52.2023 28.0734 52.4718 28.3866 52.8157 28.611C53.1596 28.8353 53.55 28.9475 53.9869 28.9475Z" fill="white"/>
<path d="M62.1927 22.8055C62.4157 22.8055 62.6295 22.8382 62.834 22.9036V23.773C62.6388 23.6796 62.425 23.6328 62.1927 23.6328C61.793 23.6328 61.4212 23.745 61.0773 23.9694C60.7333 24.1937 60.4545 24.5209 60.2407 24.951C60.0362 25.3717 59.934 25.8718 59.934 26.4514V29.5926H58.9859V23.0298H59.934V24.348C60.1849 23.8618 60.501 23.4832 60.8821 23.2121C61.2725 22.941 61.7093 22.8055 62.1927 22.8055Z" fill="white"/>
<path d="M66.3907 22.8055C66.9763 22.8055 67.5061 22.9504 67.9802 23.2402C68.4542 23.53 68.826 23.9273 69.0956 24.4321C69.3651 24.9276 69.4999 25.4838 69.4999 26.1008C69.4999 26.2785 69.4952 26.414 69.4859 26.5075H64.1181C64.1553 27.1806 64.3737 27.7556 64.7734 28.2323C65.1731 28.7091 65.7169 28.9475 66.4047 28.9475C66.9624 28.9475 67.4225 28.8447 67.785 28.639C68.1568 28.424 68.4542 28.1295 68.6773 27.7556L69.4302 28.2604C69.1234 28.7465 68.7191 29.1298 68.2172 29.4103C67.7153 29.6814 67.1204 29.8169 66.4326 29.8169C65.8005 29.8169 65.2382 29.6674 64.7455 29.3682C64.2529 29.069 63.8672 28.653 63.5883 28.1202C63.3095 27.5873 63.17 26.9843 63.17 26.3112C63.17 25.6381 63.3048 25.0351 63.5744 24.5022C63.8532 23.9694 64.2343 23.5533 64.7176 23.2542C65.2103 22.955 65.768 22.8055 66.3907 22.8055ZM68.5518 25.7222C68.4589 25.0398 68.2311 24.5303 67.8686 24.1937C67.5061 23.8478 67.0135 23.6749 66.3907 23.6749C65.7866 23.6749 65.2893 23.8712 64.8989 24.2638C64.5178 24.6471 64.2761 25.1333 64.1739 25.7222H68.5518Z" fill="white"/>
<path d="M18.4532 29.9019C17.9611 29.9019 16.6079 28.5958 16.0953 27.9428C13.6007 28.3896 8.85753 29.3657 9.8417 29.6957C11.424 30.2261 19.0683 29.9019 18.4532 29.9019Z" fill="white"/>
</svg>
