<svg width="92" height="35" viewBox="0 0 92 35" fill="none" xmlns="http://www.w3.org/2000/svg">
<path d="M60.1107 24.202V6.35972C60.1107 0.261929 66.3824 -1.02919 70.8754 0.713041V4.11971C67.7779 2.8286 64.297 3.15527 64.297 7.07528H69.296V10.482H64.297V24.1553L60.1107 24.202ZM80.0454 4.43083H83.143L83.7717 7.05972H87.6359V10.4664H84.2164V18.3686C84.2164 19.9709 84.9064 20.7486 86.2405 20.7486H88.3873V24.1553H84.2164C81.4255 24.1553 79.9841 22.6153 79.9841 19.5975V4.44638H80.0454V4.43083ZM72.5775 7.05972H76.8098V24.1398H72.5775V7.05972ZM72.5775 0.899708H76.8098V4.43083H72.5775V0.899708ZM92.0063 24.1398C88.28 30.1131 81.7475 34.0176 74.295 34.0176C66.8271 34.0176 60.31 30.0976 56.5837 24.1398C60.9541 28.2464 67.2718 30.7509 74.295 30.7509C81.3182 30.8131 87.6359 28.2464 92.0063 24.1398Z" fill="white"/>
<path d="M0.506036 20.2196V17.9018C1.70212 18.4151 3.15889 18.6796 4.73834 18.6796C5.93442 18.6796 6.51713 18.2907 6.51713 17.5285C6.51713 16.8285 6.13377 16.4396 5.32104 16.4396H3.35824C1.15008 16.4396 0 15.2885 0 13.0329C0 10.7151 1.64078 9.564 4.87635 9.564C6.27178 9.564 7.5292 9.75067 8.80196 10.2018V12.5196C7.60587 12.0062 6.27178 11.7418 4.81501 11.7418C3.2969 11.7418 2.60685 12.1307 2.60685 12.8929C2.60685 13.5929 3.05155 13.9818 3.94095 13.9818H5.71974C8.12724 13.9818 9.38467 15.1329 9.38467 17.3885C9.38467 19.7062 7.80522 20.8574 4.70767 20.8574C3.09755 20.8729 1.77879 20.6085 0.506036 20.2196ZM11.1941 20.7329V9.62622H13.3409L13.663 11.0418C14.9357 10.0773 16.1932 9.62622 17.3892 9.62622C18.7847 9.62622 19.7354 10.1396 20.3028 11.1662C21.6982 10.1396 23.017 9.62622 24.2284 9.62622C26.5746 9.62622 27.7093 11.0418 27.7093 13.8573V20.7329H24.9184V13.7329C24.9184 12.5196 24.4124 11.8662 23.4003 11.8662C22.5723 11.8662 21.6982 12.3173 20.8088 13.2818V20.7329H18.0179V13.7329C18.0179 12.4418 17.5119 11.8662 16.4998 11.8662C15.6104 11.8662 14.721 12.3173 13.9083 13.2818V20.7329C13.9237 20.7329 11.1941 20.7329 11.1941 20.7329ZM29.8101 17.2796C29.8101 14.9618 31.3896 13.8729 34.5485 13.8729C35.4992 13.8729 36.3886 13.9351 37.0786 14.0596V13.3596C37.0786 12.3951 36.1279 11.8818 34.2264 11.8818C33.0303 11.8818 31.8189 12.0685 30.6842 12.3951V10.1551C31.8803 9.82845 33.0917 9.64178 34.2264 9.64178C37.9527 9.64178 39.8542 10.8551 39.8542 13.2973V20.7485H38.4587L37.2626 19.9707C36.3119 20.484 35.2998 20.7485 34.2264 20.7485C31.2669 20.7329 29.8101 19.5818 29.8101 17.2796ZM37.0786 16.1751C36.3886 16.0507 35.5605 15.9885 34.5485 15.9885C33.2144 15.9885 32.5243 16.4396 32.5243 17.2796C32.5243 18.1196 33.0917 18.5707 34.1651 18.5707C35.2998 18.5707 36.2506 18.244 37.0173 17.6685V16.1907H37.0786V16.1751ZM42.5837 20.7329V9.62622H44.7305L45.0525 11.0418C46.0033 10.0773 47.0153 9.62622 48.0887 9.62622V11.8662C47.0767 11.8662 46.1259 12.3173 45.2979 13.2818V20.7329H42.5837ZM49.8062 7.83733H51.8303L52.275 9.64178H54.8052V11.8818H52.5971V17.0151C52.5971 18.0418 53.0418 18.5551 53.9312 18.5551H54.8206V20.7951H52.5357C50.6956 20.7951 49.7449 19.7685 49.7449 17.7774V7.82178H49.8062V7.83733Z" fill="white"/>
</svg>
