<svg width="188" height="28" viewBox="0 0 188 28" fill="none" xmlns="http://www.w3.org/2000/svg">
<path d="M31.8971 0.645355C27.2232 1.92453 24.0252 5.12246 22.8445 9.79636L22.3033 12.0103L16.6946 13.4863C10.6923 15.1098 5.52638 16.9794 1.98404 18.8982C0.754061 19.5377 -0.131523 20.0789 0.0160744 20.0789C0.163672 20.1281 2.23003 19.4394 4.64079 18.6522C9.51151 17.0286 18.7117 15.1098 26.5836 14.1259C33.2747 13.2895 62.3022 13.2895 71.3548 14.1259C74.9955 14.4703 84.983 15.5034 93.4944 16.4382C114.256 18.7014 125.425 19.341 138.512 18.9966C158.486 18.4554 173 15.7986 184.316 10.5343C186.333 9.64876 187.957 8.76318 187.957 8.61558C187.957 8.51719 186.038 9.05838 183.676 9.84556C179.199 11.3707 168.425 13.7323 166.063 13.7323H164.735L164.882 8.0744C165.03 4.48287 165.325 2.21972 165.719 1.82613C166.899 0.645355 166.26 0.448561 161.34 0.448561H156.42L157.158 1.53094C157.748 2.36732 157.945 3.99088 157.945 8.61558V14.5687L155.682 14.913C152.189 15.3558 148.105 15.2574 148.105 14.7163C148.105 14.4211 148.843 13.5355 149.778 12.6991C152.041 10.7311 152.779 8.51719 152.041 5.86044C150.861 1.43254 148.45 0.448561 138.856 0.448561H132.313L133.051 1.53094C133.69 2.41652 133.838 4.04008 133.838 8.91078V15.2082H129.951C127.442 15.2082 125.917 15.0114 125.621 14.5687C125.375 14.2735 124.096 10.9279 122.817 7.18881L120.456 0.448561H115.831H111.206L111.993 1.67853C112.731 2.81011 112.682 3.1545 111.206 7.9268C110.37 10.7311 109.484 13.1419 109.287 13.3879C109.091 13.5847 104.023 13.1911 97.9715 12.5023C91.9692 11.8135 86.9509 11.2723 86.8525 11.2723C86.7049 11.2723 86.6065 10.6327 86.6065 9.84556C86.6065 8.17279 88.4269 5.36845 90.0505 4.53207C91.8216 3.64649 94.9212 3.79409 97.3319 4.87646L99.3983 5.81124V3.1545V0.546959L96.1512 0.202566C88.1317 -0.683016 82.2278 2.07213 79.7679 7.8284C78.8823 9.84556 78.4887 10.2883 77.5047 10.2883C76.7175 10.2883 76.2747 9.99315 76.2747 9.55036C76.2747 6.50003 71.65 1.82613 67.4681 0.596157C64.3685 -0.289423 59.2518 -0.0434284 56.4475 1.08815C54.1351 2.07212 50.8388 5.12246 49.7072 7.38561C48.5756 9.55036 48.0344 9.79636 44.0985 9.79636C42.4257 9.79636 38.6374 10.0424 35.7346 10.3375C32.8319 10.6327 30.3227 10.7311 30.1751 10.6327C29.7815 10.19 31.7987 6.15564 32.9795 5.12246C34.4063 3.84329 39.3754 3.79409 41.7369 5.02406L43.3113 5.90964V3.2529V0.596157L40.7529 0.251764C37.0138 -0.191027 34.5539 -0.0434284 31.8971 0.645355ZM64.6637 4.33528C65.9429 4.82727 68.4029 8.0744 68.4029 9.25517C68.4029 9.79636 67.3697 9.84556 62.4006 9.55036C59.055 9.35357 56.2507 9.10757 56.1523 9.05838C56.0539 8.95998 56.4967 8.0744 57.0871 7.09042C58.809 4.28608 61.6626 3.2529 64.6637 4.33528ZM144.12 5.66365C145.842 7.8284 145.055 11.9611 142.743 13.2403C140.873 14.2243 140.726 13.8799 140.726 9.05838C140.726 4.43367 140.726 4.38447 141.906 4.38447C142.644 4.38447 143.53 4.92566 144.12 5.66365ZM116.913 11.0263L117.996 14.2243H115.831C114.502 14.2243 113.666 13.9783 113.666 13.6339C113.666 12.7483 115.29 7.8284 115.585 7.8284C115.732 7.8284 116.372 9.30437 116.913 11.0263Z" fill="white"/>
<path d="M48.4772 17.0286C49.2644 21.5057 52.9051 25.7368 57.2347 27.3604C59.4978 28.1968 65.4017 28.1476 67.9601 27.262C72.0436 25.8844 75.3891 22.0469 76.4715 17.5206L76.7667 16.1922H73.864C72.2404 16.1922 70.6168 16.0447 70.174 15.8971C69.5836 15.6511 69.3868 15.9463 69.3868 16.9794C69.3376 19.2426 67.6649 22.4405 65.9921 23.2769C65.2049 23.7197 63.5813 24.0641 62.4498 24.0641C60.7278 24.0641 60.1374 23.7689 58.7598 22.2929C57.7758 21.2597 56.7919 19.4886 56.2999 17.865L55.5619 15.2083H51.8227H48.1328L48.4772 17.0286Z" fill="white"/>
<path d="M25.1076 16.0446C22.1556 16.3398 22.1064 16.389 22.992 18.9965C24.1236 22.2929 28.0103 26.1304 31.4542 27.262C33.619 27.9507 35.095 28.0983 39.0309 27.8523C41.6877 27.7047 44.1476 27.3604 44.3936 27.1144C44.6888 26.8192 45.2792 25.4416 45.7712 24.064C46.5584 21.8009 46.5584 21.6041 45.8204 21.8993C43.3604 22.9816 39.9657 24.0148 38.8833 24.064C34.9474 24.064 31.5526 21.6041 30.5195 17.865C29.8307 15.5034 29.8799 15.5034 25.1076 16.0446Z" fill="white"/>
<path d="M78.7346 17.2745C78.7346 18.7013 81.1454 22.9816 82.6705 24.2116C86.1637 27.2127 87.8857 27.7539 93.4944 27.7539C100.235 27.7539 100.973 27.5079 101.711 25.1956C102.006 24.1624 102.449 22.9324 102.596 22.4404C102.941 21.6532 102.793 21.6532 100.727 22.5388C95.6099 24.7528 91.2312 24.31 88.6236 21.358C87.7873 20.3741 87.0001 19.0949 86.8033 18.4553C86.5573 17.4713 86.1637 17.2745 83.5561 16.9793C79.3742 16.5365 78.7346 16.5857 78.7346 17.2745Z" fill="white"/>
<path d="M162.127 19.3902C161.881 19.4886 160.799 19.6854 159.815 19.8822L157.945 20.1774V23.1293C157.945 24.7529 157.699 26.524 157.453 27.0652C156.961 27.9508 157.109 28 161.586 28H166.26L165.522 26.6224C165.128 25.8844 164.833 23.9165 164.833 22.1945C164.833 19.341 164.784 19.1442 163.751 19.1934C163.111 19.1934 162.422 19.2918 162.127 19.3902Z" fill="white"/>
<path d="M107.27 20.6202C107.27 21.6041 105.204 26.5732 104.515 27.262C103.826 27.9016 104.171 28 107.516 28C111.206 28 111.255 28 110.517 26.9668C109.878 26.032 109.878 25.6385 110.566 23.4737C110.96 22.1453 111.206 20.9646 111.108 20.8662C110.616 20.4726 107.27 20.2758 107.27 20.6202Z" fill="white"/>
<path d="M145.793 20.9646C144.612 21.063 143.677 21.3089 143.677 21.5057C143.727 22.5881 146.58 26.8192 147.613 27.3604C148.302 27.7048 150.27 28 151.992 28C154.993 28 155.092 27.9508 154.354 27.1144C153.911 26.6224 152.976 24.9989 152.287 23.4245C150.861 20.325 151.254 20.4726 145.793 20.9646Z" fill="white"/>
<path d="M120.308 21.9485C121.046 23.7689 121.144 26.524 120.554 27.262C120.013 27.9016 120.603 28 125.375 28H130.836L129.656 26.278C129.016 25.2941 128.376 23.9165 128.18 23.1293C127.934 21.8993 127.589 21.7025 125.621 21.4073C124.391 21.2597 122.62 21.1121 121.685 21.1121C120.209 21.1121 120.013 21.2597 120.308 21.9485Z" fill="white"/>
<path d="M133.838 23.8673C133.838 25.0973 133.592 26.524 133.346 27.0652C132.854 27.9508 133.001 28 137.528 28H142.251L141.513 26.9176C141.07 26.3272 140.726 24.8513 140.726 23.7197V21.6041H137.282H133.838V23.8673Z" fill="white"/>
</svg>
