<svg width="438" height="119" viewBox="0 0 438 119" fill="none" xmlns="http://www.w3.org/2000/svg">
<path d="M421.353 32.3727V41.8305C415.02 36.754 407.383 33.5719 399.323 32.6508C391.262 31.7297 383.106 33.1071 375.793 36.6243C368.48 40.1414 362.308 45.6553 357.989 52.5307C353.669 59.4061 351.377 67.3633 351.377 75.4858C351.377 83.6082 353.669 91.5655 357.989 98.4409C362.308 105.316 368.48 110.83 375.793 114.347C383.106 117.864 391.262 119.242 399.323 118.321C407.383 117.4 415.02 114.218 421.353 109.141V118.599H437.5V32.3727H421.353ZM394.643 102.433C389.319 102.473 384.103 100.933 379.655 98.0059C375.206 95.0788 371.724 90.8967 369.649 85.9883C367.574 81.08 367 75.666 367.999 70.4309C368.998 65.1958 371.525 60.3748 375.26 56.5776C378.996 52.7804 383.772 50.1775 388.985 49.0981C394.199 48.0188 399.614 48.5115 404.548 50.5138C409.481 52.5162 413.711 55.9383 416.702 60.3473C419.692 64.7564 421.31 69.9545 421.35 75.284C421.404 82.4293 418.62 89.3034 413.612 94.3945C408.605 99.4857 401.779 102.377 394.643 102.433Z" fill="white"/>
<path d="M302.094 32.3733C296.438 32.4098 290.844 33.563 285.633 35.7667C280.422 37.9705 275.697 41.1816 271.727 45.2162C267.757 49.2508 264.621 54.0297 262.499 59.2792C260.376 64.5288 259.309 70.1459 259.357 75.8091C259.371 77.5018 259.483 79.1923 259.691 80.8722C260.503 87.3871 262.798 93.6285 266.398 99.1162C267.148 100.269 267.949 101.373 268.801 102.427C273.801 108.673 280.437 113.403 287.969 116.088C295.501 118.772 303.63 119.305 311.447 117.628C319.265 115.95 326.461 112.127 332.232 106.588C338.003 101.048 342.12 94.0099 344.123 86.261H327.092C325.01 91.0344 321.592 95.1018 317.25 97.9709C312.908 100.84 307.829 102.388 302.626 102.427H302.419C297.265 102.425 292.22 100.942 287.883 98.1531C283.546 95.3645 280.1 91.388 277.954 86.6961C277.888 86.552 277.825 86.4079 277.761 86.261C277.005 84.5301 276.435 82.7237 276.06 80.8722H345.165C345.933 74.7756 345.391 68.5849 343.574 62.7153C341.758 56.8456 338.709 51.4327 334.632 46.8395C330.554 42.2463 325.543 38.579 319.934 36.0835C314.326 33.588 308.249 32.322 302.111 32.3704L302.094 32.3733ZM302.336 64.7059H277.744C277.807 64.5589 277.87 64.4177 277.939 64.2708C280.103 59.5398 283.588 55.537 287.974 52.7455C292.36 49.954 297.46 48.4931 302.657 48.5391C307.854 48.5851 312.926 50.1361 317.262 53.0048C321.598 55.8735 325.012 59.9374 327.092 64.7059H302.336Z" fill="white"/>
<path d="M226.775 32.3756C217.101 32.4329 207.73 35.7651 200.186 41.8304V32.3727H184.039V118.599H200.186V75.6904C200.144 70.018 201.89 64.4769 205.177 59.8565C208.464 55.2361 213.124 51.7721 218.493 49.958C223.861 48.1439 229.664 48.0721 235.075 49.753C240.487 51.4339 245.23 54.7817 248.63 59.3195C251.937 54.9056 256.516 51.6127 261.749 49.8848C257.717 44.4068 252.445 39.9638 246.365 36.9202C240.286 33.8767 233.572 32.3192 226.775 32.3756Z" fill="white"/>
<path d="M161.997 41.8304V75.4915C162.023 82.6375 159.214 89.5012 154.185 94.5728C149.157 99.6444 142.322 102.508 135.184 102.535C128.047 102.561 121.192 99.7477 116.126 94.7134C111.06 89.6791 108.2 82.8363 108.173 75.6904V32.3727H92.0263V75.8114C92.0683 87.2457 96.6451 98.195 104.751 106.25C112.856 114.306 123.826 118.808 135.247 118.766C146.667 118.724 157.603 114.141 165.649 106.026C173.695 97.9114 178.192 86.9287 178.15 75.4944V32.3727H162.003L161.997 41.8304Z" fill="white"/>
<path d="M69.9754 41.8305C63.6423 36.754 56.0058 33.5719 47.9453 32.6508C39.8848 31.7297 31.7283 33.1071 24.4155 36.6243C17.1027 40.1414 10.931 45.6553 6.61141 52.5307C2.29181 59.4061 0 67.3633 0 75.4858C0 83.6082 2.29181 91.5655 6.61141 98.4409C10.931 105.316 17.1027 110.83 24.4155 114.347C31.7283 117.864 39.8848 119.242 47.9453 118.321C56.0058 117.4 63.6423 114.218 69.9754 109.141V118.599H86.1257V32.3727H69.9754V41.8305ZM43.2652 102.43C37.9421 102.47 32.7263 100.929 28.2779 98.0015C23.8295 95.0741 20.3481 90.8918 18.2739 85.9834C16.1996 81.075 15.6259 75.6611 16.625 70.4262C17.6241 65.1913 20.1514 60.3706 23.8871 56.5736C27.6227 52.7767 32.3989 50.1741 37.612 49.095C42.825 48.0159 48.2404 48.5088 53.1737 50.5112C58.107 52.5136 62.3367 55.9357 65.3274 60.3447C68.3181 64.7538 69.9354 69.9517 69.9754 75.2811C70.0024 78.8199 69.3328 82.3293 68.005 85.6089C66.6773 88.8886 64.7176 91.8743 62.2372 94.3956C59.7569 96.9168 56.8049 98.9242 53.5497 100.303C50.2945 101.682 46.7998 102.406 43.2652 102.433V102.43Z" fill="white"/>
<path d="M50.5847 22.3447C54.184 20.0222 56.7148 16.3637 57.6205 12.1735C58.5262 7.98334 57.7326 3.60457 55.4144 0C53.3498 5.45104 49.5753 10.0847 44.657 13.2053C39.7386 16.326 33.942 17.7654 28.1371 17.3075L28.2636 17.5092C29.4119 19.2942 30.9002 20.8353 32.6435 22.0443C34.3868 23.2534 36.3509 24.1069 38.4236 24.5559C40.4964 25.0049 42.6375 25.0407 44.7241 24.6613C46.8107 24.2819 48.802 23.4947 50.5847 22.3447Z" fill="white"/>
</svg>
